<?xml version="1.0" encoding="UTF-8"?>
<svg width="40" height="40" viewBox="0 0 40 40" fill="none" xmlns="http://www.w3.org/2000/svg">
    <rect width="40" height="40" rx="8" fill="#1a1a2e"/>
    <path d="M20 10C14.4772 10 10 14.4772 10 20C10 25.5228 14.4772 30 20 30C25.5228 30 30 25.5228 30 20C30 14.4772 25.5228 10 20 10Z" fill="#00b4d8"/>
    <path d="M20 14V18M20 22H20.01M20 26C23.3137 26 26 23.3137 26 20C26 16.6863 23.3137 14 20 14C16.6863 14 14 16.6863 14 20C14 20.7956 14.1405 21.5587 14.3976 22.2655C14.5029 22.5679 14.5555 22.7191 14.5775 22.8214C14.5934 22.8998 14.6013 22.9547 14.6029 23.0005C14.6048 23.0544 14.5988 23.1098 14.5857 23.1626C14.5708 23.2226 14.5334 23.348 14.4586 23.5989L14 25L15.4011 24.5414C15.652 24.4666 15.7774 24.4292 15.8374 24.4143C15.8902 24.4012 15.9456 24.3952 15.9995 24.3971C16.0453 24.3987 16.1002 24.4066 16.1786 24.4225C16.2809 24.4445 16.4321 24.4971 16.7345 24.6024C17.4413 24.8595 18.2044 25 19 25C22.3137 25 25 22.3137 25 19C25 15.6863 22.3137 13 19 13C15.6863 13 13 15.6863 13 19C13 19.7956 13.1405 20.5587 13.3976 21.2655C13.5029 21.5679 13.5555 21.7191 13.5775 21.8214C13.5934 21.8998 13.6013 21.9547 13.6029 22.0005C13.6048 22.0544 13.5988 22.1098 13.5857 22.1626C13.5708 22.2226 13.5334 22.348 13.4586 22.5989L13 24L14.4011 23.5414C14.652 23.4666 14.7774 23.4292 14.8374 23.4143C14.8902 23.4012 14.9456 23.3952 14.9995 23.3971C15.0453 23.3987 15.1002 23.4066 15.1786 23.4225C15.2809 23.4445 15.4321 23.4971 15.7345 23.6024C16.4413 23.8595 17.2044 24 18 24C20.7614 24 23 21.7614 23 19C23 16.2386 20.7614 14 18 14C15.2386 14 13 16.2386 13 19.5" stroke="white" stroke-width="1.5" stroke-linecap="round" stroke-linejoin="round"/>
</svg>
